HIERARCHY
ROOT Hips
{
	OFFSET 0.000000 0.000000 0.000000
	CHANNELS 6 Xposition Yposition Zposition Xrotation Yrotation Zrotation
	JOINT LeftUpLeg_virtual
	{
		OFFSET 0.000000 0.000000 0.000000
		CHANNELS 3 Xrotation Yrotation Zrotation
		JOINT LeftUpLeg
		{
			OFFSET 13.026900 -6.336304 -1.092800
			CHANNELS 3 Xrotation Yrotation Zrotation
			JOINT LeftLeg
			{
				OFFSET 0.524474 -46.096886 9.782700
				CHANNELS 3 Xrotation Yrotation Zrotation
				JOINT LeftFoot
				{
					OFFSET -0.524474 -53.427422 -12.948200
					CHANNELS 3 Xrotation Yrotation Zrotation
					JOINT LeftToeBase
					{
						OFFSET 0.192200 -14.009700 16.364100
						CHANNELS 3 Xrotation Yrotation Zrotation
						JOINT LeftToe_End
						{
							OFFSET -1.784700 -0.561700 9.474800
							CHANNELS 3 Xrotation Yrotation Zrotation
							End Site
							{
								OFFSET 0 0 0
							}
						}
					}
				}
			}
		}
	}
	JOINT RightUpLeg_virtual
	{
		OFFSET 0.000000 0.000000 0.000000
		CHANNELS 3 Xrotation Yrotation Zrotation
		JOINT RightUpLeg
		{
			OFFSET -12.883000 -6.336304 -1.092800
			CHANNELS 3 Xrotation Yrotation Zrotation
			JOINT RightLeg
			{
				OFFSET -0.524587 -46.096825 9.782800
				CHANNELS 3 Xrotation Yrotation Zrotation
				JOINT RightFoot
				{
					OFFSET 0.524587 -53.427383 -12.948300
					CHANNELS 3 Xrotation Yrotation Zrotation
					JOINT RightToeBase
					{
						OFFSET -0.192200 -14.009700 16.364100
						CHANNELS 3 Xrotation Yrotation Zrotation
						JOINT RightToe_End
						{
							OFFSET 1.784700 -0.561700 9.474800
							CHANNELS 3 Xrotation Yrotation Zrotation
							End Site
							{
								OFFSET 0 0 0
							}
						}
					}
				}
			}
		}
	}
	JOINT Spine_virtual
	{
		OFFSET 0.000000 0.000000 0.000000
		CHANNELS 3 Xrotation Yrotation Zrotation
		JOINT Spine
		{
			OFFSET 0.072000 7.257294 -0.789700
			CHANNELS 3 Xrotation Yrotation Zrotation
			JOINT Spine1
			{
				OFFSET 0.000000 12.508769 -0.658067
				CHANNELS 3 Xrotation Yrotation Zrotation
				JOINT Spine1_split
				{
					OFFSET 0.000000 12.508769 -0.658067
					CHANNELS 3 Xrotation Yrotation Zrotation
					JOINT Spine2
					{
						OFFSET 0.000000 12.508769 -0.658067
						CHANNELS 3 Xrotation Yrotation Zrotation
						JOINT Neck_virtual
						{
							OFFSET 0.000000 0.000000 0.000000
							CHANNELS 3 Xrotation Yrotation Zrotation
							JOINT Neck
							{
								OFFSET 0.000000 14.033295 7.520400
								CHANNELS 3 Xrotation Yrotation Zrotation
								JOINT Head
								{
									OFFSET 0.000000 8.198502 5.703100
									CHANNELS 3 Xrotation Yrotation Zrotation
									JOINT HeadTop_End
									{
										OFFSET 0.000000 17.760803 13.332701
										CHANNELS 3 Xrotation Yrotation Zrotation
										End Site
										{
											OFFSET 0 0 0
										}
									}
								}
							}
						}
						JOINT LeftShoulder_virtual
						{
							OFFSET 0.000000 0.000000 0.000000
							CHANNELS 3 Xrotation Yrotation Zrotation
							JOINT LeftShoulder
							{
								OFFSET 6.292450 5.785301 -0.669000
								CHANNELS 3 Xrotation Yrotation Zrotation
								JOINT LeftShoulder_split
								{
									OFFSET 6.292450 5.785301 -0.669000
									CHANNELS 3 Xrotation Yrotation Zrotation
									JOINT LeftArm
									{
										OFFSET 13.907140 -6.093903 1.965100
										CHANNELS 3 Xrotation Yrotation Zrotation
										JOINT LeftForeArm
										{
											OFFSET 34.140198 0.000000 0.000000
											CHANNELS 3 Xrotation Yrotation Zrotation
											JOINT LeftHand
											{
												OFFSET 40.960209 0.000000 0.000000
												CHANNELS 3 Xrotation Yrotation Zrotation
												End Site
												{
													OFFSET 0 0 0
												}
											}
										}
									}
								}
							}
						}
						JOINT RightShoulder_virtual
						{
							OFFSET 0.000000 0.000000 0.000000
							CHANNELS 3 Xrotation Yrotation Zrotation
							JOINT RightShoulder
							{
								OFFSET -6.292450 5.785301 -0.669000
								CHANNELS 3 Xrotation Yrotation Zrotation
								JOINT RightShoulder_split
								{
									OFFSET -6.292450 5.785301 -0.669000
									CHANNELS 3 Xrotation Yrotation Zrotation
									JOINT RightArm
									{
										OFFSET -13.907140 -6.093903 1.965100
										CHANNELS 3 Xrotation Yrotation Zrotation
										JOINT RightForeArm
										{
											OFFSET -34.140198 0.000000 0.000000
											CHANNELS 3 Xrotation Yrotation Zrotation
											JOINT RightHand
											{
												OFFSET -40.960209 0.000000 0.000000
												CHANNELS 3 Xrotation Yrotation Zrotation
												End Site
												{
													OFFSET 0 0 0
												}
											}
										}
									}
								}
							}
						}
					}
				}
			}
		}
	}
}
MOTION
Frames: 9
Frame Time: 0.03333333
15.069234 108.052055 -0.505352 0.000000 0.000000 0.000000 2.047445 -44.936429 2.668984 -20.937014 15.538615 7.145877 33.326125 19.320505 1.501728 -4.479939 13.578422 -13.488795 -1.237319 -0.383051 -1.346131 0.000000 0.000000 0.000000 1.850014 -44.537901 2.853310 -26.015422 -36.391398 -23.460204 31.116887 -7.176272 -4.352559 -9.362217 -2.758708 8.142531 -7.066851 1.433632 2.358840 0.000000 0.000000 0.000000 3.374287 -42.490562 2.934050 11.403653 -6.921147 2.905987 3.047727 -2.117081 -1.965492 -0.276260 -0.269088 0.779591 0.000000 0.000000 0.000000 -7.682219 -3.964227 -0.754895 -9.684182 -4.900013 -4.873142 10.327395 -22.389920 7.827273 0.000000 0.000000 0.000000 -8.882155 -3.912958 -1.258359 -0.911455 2.397550 -6.695171 0.951954 -3.139396 1.613660 9.729532 5.362836 -58.957517 -1.063894 -45.992424 0.215716 0.000000 0.000000 0.000000 -8.873982 -4.305918 -1.219635 -1.007472 -1.648659 5.836605 -3.614414 -4.231141 -2.128060 7.477045 18.586126 71.812288 0.249857 49.709895 1.281184 0.000000 0.000000 0.000000 
14.411849 107.959259 -1.257980 0.000000 0.000000 0.000000 1.131426 -48.605132 2.493657 -20.471233 15.940166 7.700923 34.814642 19.677515 1.375571 -4.051820 13.889566 -13.341601 -1.406635 -0.145328 -1.542247 0.000000 0.000000 0.000000 1.160238 -48.046887 2.754174 -24.640570 -36.735571 -23.114374 29.618934 -8.229461 -4.513418 -9.791996 -4.100887 8.218802 -6.902453 1.470148 1.957646 0.000000 0.000000 0.000000 2.537582 -45.786754 2.738307 11.347625 -6.829273 2.768548 2.816196 -1.897439 -1.808897 -0.282848 -0.438813 0.882202 0.000000 0.000000 0.000000 -7.886492 -3.796229 -0.587398 -9.336058 -3.987902 -5.033738 10.683026 -20.592947 7.398279 0.000000 0.000000 0.000000 -9.114268 -3.703926 -1.101086 -0.835222 2.181980 -6.663390 0.888498 -3.649080 1.782344 9.188905 5.013655 -58.402919 -1.221101 -45.255198 0.184216 0.000000 0.000000 0.000000 -9.071548 -4.116770 -1.078877 -1.237216 -0.848126 5.712396 -3.601914 -4.210459 -2.174395 7.054799 17.232738 72.066788 0.130155 48.126742 1.355286 0.000000 0.000000 0.000000 
13.611585 107.816460 -2.195740 0.000000 0.000000 0.000000 0.206995 -52.030359 1.945316 -20.621115 16.559853 8.784266 36.623573 20.076241 1.183846 -3.829044 14.160145 -12.615090 -1.516985 0.042537 -1.837114 0.000000 0.000000 0.000000 0.225459 -51.090372 2.170114 -23.326061 -36.819842 -22.186741 27.949949 -8.825043 -4.547616 -10.008632 -4.670862 8.446784 -7.530335 1.534260 1.514072 0.000000 0.000000 0.000000 1.770344 -48.725484 2.277474 11.345919 -6.418966 2.584286 2.635545 -1.765285 -1.576338 -0.230427 -0.598285 0.989879 0.000000 0.000000 0.000000 -8.061317 -3.680254 -0.358168 -9.029641 -3.279360 -5.162873 10.954584 -19.121751 6.931283 0.000000 0.000000 0.000000 -9.279010 -3.573451 -0.857963 -0.782825 1.918888 -6.576279 0.892485 -3.913177 1.802753 8.442218 4.468235 -58.059839 -1.214658 -44.656316 0.294061 0.000000 0.000000 0.000000 -9.244600 -3.989018 -0.858692 -1.437513 -0.182235 5.578365 -3.434610 -4.152129 -2.283935 6.508554 15.625661 72.194956 0.006452 46.065118 1.440255 0.000000 0.000000 0.000000 
12.715639 107.704346 -3.119537 0.000000 0.000000 0.000000 -0.724611 -55.007253 1.055240 -21.610076 17.278536 10.427044 38.514511 20.293277 0.992845 -3.471815 14.110898 -11.693082 -1.644990 0.148576 -2.180759 0.000000 0.000000 0.000000 -0.845825 -53.746810 1.166482 -21.968023 -36.575291 -20.754471 26.157099 -8.975651 -4.512490 -10.159803 -4.566276 8.941909 -8.702604 1.606558 1.091740 0.000000 0.000000 0.000000 1.106771 -51.317025 1.614072 11.389233 -5.766885 2.374654 2.505884 -1.724554 -1.274293 -0.093340 -0.797920 1.006281 0.000000 0.000000 0.000000 -8.188044 -3.632919 -0.067331 -8.777933 -2.759826 -5.289646 11.111639 -17.947072 6.457951 0.000000 0.000000 0.000000 -9.372817 -3.532685 -0.540031 -0.754461 1.599472 -6.472321 0.988854 -3.807985 1.734357 7.634233 3.675136 -57.847447 -1.116754 -44.173678 0.467235 0.000000 0.000000 0.000000 -9.390346 -3.938653 -0.552918 -1.600559 0.330288 5.447055 -3.141596 -3.926247 -2.436764 5.925194 13.806127 72.221423 -0.078676 43.680836 1.506229 0.000000 0.000000 0.000000 
11.812350 107.706451 -4.030571 0.000000 0.000000 0.000000 -1.606788 -57.438783 -0.050651 -23.385955 17.948045 12.491356 40.158729 19.978689 0.870072 -2.616458 13.454465 -10.902607 -2.047672 0.140214 -2.443693 0.000000 0.000000 0.000000 -1.841808 -56.124149 -0.015067 -20.215818 -36.014160 -18.788703 24.349317 -9.111474 -4.420372 -10.619338 -4.292744 9.080210 -9.545776 1.649614 0.817726 0.000000 0.000000 0.000000 0.638201 -53.718465 0.926504 11.446289 -4.959981 2.134176 2.405246 -1.745847 -0.919207 0.048616 -0.979734 0.946349 0.000000 0.000000 0.000000 -8.279553 -3.637724 0.273573 -8.545630 -2.406290 -5.477153 11.171107 -17.033935 6.005135 0.000000 0.000000 0.000000 -9.401288 -3.568339 -0.171446 -0.751857 1.288162 -6.391664 1.158257 -3.288406 1.518241 6.885783 2.568681 -57.695673 -1.004915 -43.698601 0.627168 0.000000 0.000000 0.000000 -9.499598 -3.953439 -0.186996 -1.709036 0.677538 5.345853 -2.826471 -3.554706 -2.638216 5.414797 11.837956 72.185360 -0.090316 41.090637 1.532115 0.000000 0.000000 0.000000 
10.865110 107.871559 -4.796516 0.000000 0.000000 0.000000 -2.140767 -59.355587 -1.021647 -25.580479 18.418688 14.642968 41.129726 18.984157 0.858771 -1.511884 12.095906 -10.179507 -2.983361 -0.003554 -2.442015 0.000000 0.000000 0.000000 -2.714212 -58.252648 -1.157432 -18.052415 -35.044382 -16.489936 22.593769 -9.475057 -4.268541 -11.474702 -4.177375 8.550032 -9.393028 1.645335 0.749396 0.000000 0.000000 0.000000 0.430149 -55.981993 0.411285 11.482829 -4.074169 1.878305 2.312114 -1.798036 -0.546836 0.145163 -1.049100 0.868460 0.000000 0.000000 0.000000 -8.343398 -3.664871 0.630600 -8.312152 -2.190324 -5.752725 11.171810 -16.334946 5.605453 0.000000 0.000000 0.000000 -9.398752 -3.639033 0.215024 -0.774395 1.056900 -6.334064 1.414421 -2.481843 1.274138 6.386438 1.116046 -57.541509 -0.969672 -43.238133 0.700464 0.000000 0.000000 0.000000 -9.574590 -4.000902 0.206356 -1.765495 0.854985 5.263463 -2.554904 -3.064284 -2.844584 5.017707 9.808756 72.062423 -0.042485 38.401396 1.517691 0.000000 0.000000 0.000000 
9.904821 108.196564 -5.477436 0.000000 0.000000 0.000000 -2.317736 -60.847416 -1.672988 -27.669648 18.558758 16.440757 41.168723 17.347805 0.946690 -0.585827 10.223584 -9.455430 -4.370723 -0.246596 -2.157511 0.000000 0.000000 0.000000 -3.345162 -60.311486 -2.020285 -15.793016 -33.502030 -14.178759 21.019957 -10.010110 -4.086575 -12.438452 -4.351347 7.705658 -8.671167 1.576881 0.879910 0.000000 0.000000 0.000000 0.519959 -58.180029 0.207993 11.505079 -3.159672 1.603792 2.211264 -1.817158 -0.194859 0.154139 -1.084406 0.723658 0.000000 0.000000 0.000000 -8.403921 -3.657679 0.968970 -8.068420 -2.081467 -6.147781 11.159963 -15.803499 5.286908 0.000000 0.000000 0.000000 -9.384065 -3.683330 0.582959 -0.819739 0.945623 -6.302117 1.585968 -1.554188 0.975307 6.170205 -0.632697 -57.370652 -1.051485 -42.786805 0.658471 0.000000 0.000000 0.000000 -9.623300 -4.020938 0.588961 -1.767111 0.889376 5.194889 -2.411291 -2.614235 -3.024754 4.761057 7.848513 71.798764 0.049508 35.737462 1.472204 0.000000 0.000000 0.000000 
8.943183 108.616646 -6.069286 0.000000 0.000000 0.000000 -2.068855 -62.272904 -1.845755 -29.456379 18.457487 17.733528 40.571334 15.344583 0.905213 -0.102689 8.235303 -8.555824 -5.448690 -0.535180 -1.810986 0.000000 0.000000 0.000000 -3.697801 -62.395554 -2.480508 -13.755949 -31.420339 -12.168965 19.701324 -10.521538 -3.915917 -12.985116 -4.733601 7.117600 -8.037779 1.464865 1.119260 0.000000 0.000000 0.000000 0.861962 -60.349817 0.383762 11.527339 -2.247971 1.318076 2.105357 -1.753508 0.100487 0.138538 -1.063319 0.623899 0.000000 0.000000 0.000000 -8.480164 -3.559468 1.256125 -7.804197 -2.041568 -6.642051 11.169565 -15.422470 5.080844 0.000000 0.000000 0.000000 -9.383354 -3.637875 0.899075 -0.885233 0.959690 -6.263711 1.674623 -0.621218 0.681255 6.235838 -2.528159 -57.221242 -1.234570 -42.433493 0.518865 0.000000 0.000000 0.000000 -9.655400 -3.951112 0.921521 -1.718734 0.813273 5.156335 -2.337655 -2.229440 -3.206487 4.633968 6.068124 71.374903 0.176039 33.218704 1.414312 0.000000 0.000000 0.000000 
8.050019 109.096825 -6.510780 0.000000 0.000000 0.000000 -1.547024 -63.905968 -1.567965 -30.909273 18.126634 18.458672 39.890521 13.260247 0.612065 0.165756 6.438285 -7.546539 -5.646588 -0.789598 -1.604793 0.000000 0.000000 0.000000 -3.759005 -64.526669 -2.509777 -12.054928 -28.877172 -10.557800 18.512826 -10.812068 -3.823842 -13.090758 -5.167717 7.014375 -7.458478 1.352039 1.359052 0.000000 0.000000 0.000000 1.386441 -62.513470 0.894822 11.595935 -1.363586 1.039533 2.013405 -1.547693 0.315898 0.121637 -1.053921 0.577278 0.000000 0.000000 0.000000 -8.560382 -3.324942 1.468022 -7.591678 -2.014109 -7.195235 11.202699 -15.098628 4.977178 0.000000 0.000000 0.000000 -9.401756 -3.450001 1.141565 -0.965156 1.052047 -6.191882 1.748609 0.164888 0.419261 6.549530 -4.421938 -57.157297 -1.464672 -42.231985 0.316075 0.000000 0.000000 0.000000 -9.687978 -3.736883 1.188943 -1.637494 0.673377 5.165001 -2.290023 -1.893346 -3.336931 4.613041 4.602867 70.820804 0.335410 30.901992 1.359970 0.000000 0.000000 0.000000 
